<svg width="1440" height="836" viewBox="0 0 1440 836" fill="none" xmlns="http://www.w3.org/2000/svg">
<g clip-path="url(#clip0_1_440)">
<rect width="1440" height="834.941" transform="translate(0 0.905884)" fill="#F7F7F7"/>
<path d="M1249.03 679.383C1218.03 660.387 1191.09 635.448 1169.76 605.992C1148.42 576.535 1133.09 543.138 1124.66 507.706C1116.22 472.274 1114.85 435.502 1120.6 399.489C1126.35 363.476 1139.13 328.928 1158.2 297.816C1177.27 266.705 1202.25 239.639 1231.73 218.166C1261.21 196.692 1294.6 181.231 1330 172.664C1365.4 164.098 1402.11 162.594 1438.05 168.239C1473.98 173.883 1508.43 186.566 1539.42 205.563L1457.07 339.94C1443.65 331.718 1428.74 326.229 1413.19 323.786C1397.64 321.343 1381.75 321.994 1366.43 325.702C1351.11 329.409 1336.66 336.101 1323.9 345.394C1311.14 354.688 1300.33 366.402 1292.07 379.866C1283.82 393.331 1278.29 408.284 1275.8 423.87C1273.31 439.456 1273.91 455.371 1277.56 470.705C1281.21 486.04 1287.84 500.494 1297.08 513.243C1306.31 525.991 1317.97 536.784 1331.38 545.006L1249.03 679.383Z" fill="url(#paint0_linear_1_440)"/>
<path d="M1660.7 640.523C1595.97 683.621 1523.36 713.501 1447.01 728.456C1370.66 743.411 1292.06 743.149 1215.7 727.685C1139.34 712.221 1066.73 681.857 1001.99 638.328C937.256 594.799 881.672 538.957 838.413 473.99C795.154 409.023 765.067 336.203 749.869 259.688C734.672 183.174 734.663 104.463 749.841 28.0495C765.02 -48.3638 795.089 -120.983 838.332 -185.662C881.576 -250.341 937.146 -305.813 1001.87 -348.91L1188.72 -68.3034C1160.7 -49.6511 1136.65 -25.6433 1117.94 2.34933C1099.22 30.3419 1086.21 61.771 1079.64 94.8421C1073.07 127.913 1073.07 161.979 1079.65 195.094C1086.23 228.209 1099.25 259.725 1117.97 287.842C1136.69 315.959 1160.75 340.127 1188.77 358.966C1216.78 377.806 1248.21 390.947 1281.26 397.639C1314.31 404.332 1348.32 404.445 1381.37 397.973C1414.41 391.5 1445.84 378.569 1473.85 359.917L1660.7 640.523Z" fill="url(#paint1_linear_1_440)"/>
<rect y="284.906" width="1440" height="1093" fill="url(#paint2_linear_1_440)"/>
</g>
<defs>
<linearGradient id="paint0_linear_1_440" x1="1407.99" y1="-3.09049" x2="1116.17" y2="758.125" gradientUnits="userSpaceOnUse">
<stop offset="0.1715" stop-color="white"/>
<stop offset="0.292293" stop-color="#F0F0F0"/>
<stop offset="0.659568" stop-color="#DBD9D7"/>
</linearGradient>
<linearGradient id="paint1_linear_1_440" x1="1457.74" y1="7.0373" x2="540.097" y2="839.336" gradientUnits="userSpaceOnUse">
<stop offset="0.219943" stop-color="white"/>
<stop offset="0.363327" stop-color="#EDEDED"/>
<stop offset="0.973784" stop-color="#DBD9D7"/>
</linearGradient>
<linearGradient id="paint2_linear_1_440" x1="720" y1="284.906" x2="720" y2="579.906" gradientUnits="userSpaceOnUse">
<stop stop-color="#F7F7F7" stop-opacity="0"/>
<stop offset="1" stop-color="#F7F7F7"/>
</linearGradient>
<clipPath id="clip0_1_440">
<rect width="1440" height="834.941" fill="white" transform="translate(0 0.905884)"/>
</clipPath>
</defs>
</svg>
