<svg width="1440" height="737" viewBox="0 0 1440 737" fill="none" xmlns="http://www.w3.org/2000/svg">
<g clip-path="url(#clip0_10_268)">
<path d="M1249.03 676.477C1218.03 657.481 1191.09 632.542 1169.76 603.086C1148.42 573.629 1133.09 540.232 1124.66 504.8C1116.22 469.368 1114.85 432.596 1120.6 396.583C1126.35 360.57 1139.13 326.022 1158.2 294.91C1177.27 263.799 1202.25 236.734 1231.73 215.26C1261.21 193.786 1294.6 178.325 1330 169.758C1365.4 161.192 1402.11 159.688 1438.05 165.333C1473.98 170.978 1508.43 183.66 1539.42 202.657L1457.07 337.034C1443.65 328.812 1428.74 323.323 1413.19 320.88C1397.64 318.437 1381.75 319.088 1366.43 322.796C1351.11 326.503 1336.66 333.195 1323.9 342.489C1311.14 351.782 1300.33 363.496 1292.07 376.961C1283.82 390.425 1278.29 405.378 1275.8 420.964C1273.31 436.55 1273.91 452.465 1277.56 467.799C1281.21 483.134 1287.84 497.588 1297.08 510.337C1306.31 523.085 1317.97 533.879 1331.38 542.1L1249.03 676.477Z" fill="url(#paint0_linear_10_268)"/>
<path d="M1660.7 637.618C1595.97 680.715 1523.36 710.595 1447.01 725.55C1370.66 740.505 1292.06 740.243 1215.7 724.779C1139.34 709.315 1066.73 678.952 1001.99 635.423C937.256 591.894 881.672 536.051 838.413 471.084C795.154 406.117 765.067 333.297 749.869 256.783C734.672 180.268 734.663 101.557 749.841 25.1437C765.02 -51.2697 795.089 -123.889 838.332 -188.568C881.576 -253.247 937.146 -308.719 1001.87 -351.816L1188.72 -71.2092C1160.7 -52.5569 1136.65 -28.5491 1117.94 -0.556498C1099.22 27.436 1086.21 58.8652 1079.64 91.9363C1073.07 125.007 1073.07 159.073 1079.65 192.188C1086.23 225.303 1099.25 256.819 1117.97 284.936C1136.69 313.053 1160.75 337.222 1188.77 356.061C1216.78 374.9 1248.21 388.041 1281.26 394.734C1314.31 401.426 1348.32 401.54 1381.37 395.067C1414.41 388.595 1445.84 375.663 1473.85 357.011L1660.7 637.618Z" fill="url(#paint1_linear_10_268)"/>
<rect y="282" width="1440" height="1093" fill="url(#paint2_linear_10_268)"/>
</g>
<defs>
<linearGradient id="paint0_linear_10_268" x1="1407.99" y1="-5.99631" x2="1116.17" y2="755.219" gradientUnits="userSpaceOnUse">
<stop offset="0.1715" stop-color="white"/>
<stop offset="0.292293" stop-color="#F2F2F2"/>
<stop offset="0.659568" stop-color="#E1DFDD"/>
</linearGradient>
<linearGradient id="paint1_linear_10_268" x1="1457.74" y1="4.13148" x2="540.097" y2="836.43" gradientUnits="userSpaceOnUse">
<stop offset="0.187893" stop-color="white"/>
<stop offset="0.363327" stop-color="#F2F2F2"/>
<stop offset="0.973784" stop-color="#E1DFDD"/>
</linearGradient>
<linearGradient id="paint2_linear_10_268" x1="720" y1="282" x2="720" y2="577" gradientUnits="userSpaceOnUse">
<stop stop-color="#F7F7F7" stop-opacity="0"/>
<stop offset="1" stop-color="#F7F7F7"/>
</linearGradient>
<clipPath id="clip0_10_268">
<rect width="1440" height="737" fill="white"/>
</clipPath>
</defs>
</svg>
