<svg width="24" height="25" viewBox="0 0 24 25" fill="none" xmlns="http://www.w3.org/2000/svg">
<path fill-rule="evenodd" clip-rule="evenodd" d="M17.7774 6.722C18.1113 7.05601 18.1403 7.5866 17.8497 7.95367L17.7695 8.04321L13.3194 12.4922L17.7805 16.9528C18.072 17.2547 18.1171 17.7234 17.8936 18.0813L17.8264 18.1759L17.754 18.2551C17.4315 18.5772 16.9087 18.6093 16.5393 18.3259L16.4489 18.2475L12.0072 13.8043L7.55281 18.2593C7.36738 18.4512 7.1183 18.5545 6.86102 18.55L6.73988 18.5403L6.63097 18.5172C6.318 18.4349 6.06449 18.1814 5.97953 17.8568C5.90449 17.5701 5.97086 17.2649 6.15559 17.0376L6.23801 16.9483L10.6941 12.4912L6.23398 8.03163C5.94251 7.72973 5.8974 7.26103 6.12084 6.90314L6.18805 6.8085L6.26044 6.72931C6.58296 6.40724 7.10575 6.37509 7.47514 6.65852L7.5656 6.73694L12.0072 11.1801L16.4647 6.72197C16.797 6.38978 17.3185 6.36211 17.6824 6.63898L17.7774 6.722Z" fill="#39474E"/>
</svg>
