<svg width="24" height="24" viewBox="0 0 24 24" fill="none" xmlns="http://www.w3.org/2000/svg">
<path fill-rule="evenodd" clip-rule="evenodd" d="M17.7774 6.222C18.1113 6.55601 18.1403 7.0866 17.8497 7.45367L17.7695 7.54321L13.3194 11.9922L17.7805 16.4528C18.072 16.7547 18.1171 17.2234 17.8936 17.5813L17.8264 17.6759L17.754 17.7551C17.4315 18.0772 16.9087 18.1093 16.5393 17.8259L16.4489 17.7475L12.0072 13.3043L7.55281 17.7593C7.36738 17.9512 7.1183 18.0545 6.86102 18.05L6.73988 18.0403L6.63097 18.0172C6.318 17.9349 6.06449 17.6814 5.97953 17.3568C5.90449 17.0701 5.97086 16.7649 6.15559 16.5376L6.23801 16.4483L10.6941 11.9912L6.23398 7.53163C5.94251 7.22973 5.8974 6.76103 6.12084 6.40314L6.18805 6.3085L6.26044 6.22931C6.58296 5.90724 7.10575 5.87509 7.47514 6.15852L7.5656 6.23694L12.0072 10.6801L16.4647 6.22197C16.797 5.88978 17.3185 5.86211 17.6824 6.13898L17.7774 6.222Z" fill="#39474E"/>
</svg>
