<svg width="24" height="25" viewBox="0 0 24 25" fill="none" xmlns="http://www.w3.org/2000/svg">
<path fill-rule="evenodd" clip-rule="evenodd" d="M12.0002 18.1513C8.87317 18.1513 6.33887 15.617 6.33887 12.5002C6.33887 9.37317 8.87317 6.83887 12.0002 6.83887C15.1272 6.83887 17.6615 9.37317 17.6615 12.5002C17.6615 15.617 15.1272 18.1513 12.0002 18.1513ZM12 5.5C8.13723 5.5 5 8.62701 5 12.5C5 16.3628 8.13723 19.5 12 19.5C15.8628 19.5 19 16.3628 19 12.5C19 8.62701 15.8628 5.5 12 5.5ZM12.6927 12.5364C12.6406 12.2266 12.3224 12 11.9502 12C11.6226 12 11.3351 12.1759 11.2346 12.4401L11.2085 12.5311L11.2002 12.6239V15.5866L11.2067 15.6636C11.2588 15.9734 11.5779 16.2 11.9502 16.2C12.2777 16.2 12.5652 16.0241 12.6657 15.7599L12.6918 15.6689L12.7002 15.577V12.6134L12.6927 12.5364ZM10.9512 9.89999C10.9512 9.34682 11.399 8.89999 11.9512 8.89999C12.5034 8.89999 12.9512 9.34682 12.9512 9.89999C12.9512 10.4522 12.5034 10.9 11.9512 10.9C11.399 10.9 10.9512 10.4522 10.9512 9.89999Z" fill="#39474E"/>
</svg>
