<svg width="24" height="24" viewBox="0 0 24 24" fill="none" xmlns="http://www.w3.org/2000/svg">
<path fill-rule="evenodd" clip-rule="evenodd" d="M12.0002 17.6513C8.87317 17.6513 6.33887 15.117 6.33887 12.0002C6.33887 8.87317 8.87317 6.33887 12.0002 6.33887C15.1272 6.33887 17.6615 8.87317 17.6615 12.0002C17.6615 15.117 15.1272 17.6513 12.0002 17.6513ZM12 5C8.13723 5 5 8.12701 5 12C5 15.8628 8.13723 19 12 19C15.8628 19 19 15.8628 19 12C19 8.12701 15.8628 5 12 5ZM12.6927 12.0364C12.6406 11.7266 12.3224 11.5 11.9502 11.5C11.6226 11.5 11.3351 11.6759 11.2346 11.9401L11.2085 12.0311L11.2002 12.1239V15.0866L11.2067 15.1636C11.2588 15.4734 11.5779 15.7 11.9502 15.7C12.2777 15.7 12.5652 15.5241 12.6657 15.2599L12.6918 15.1689L12.7002 15.077V12.1134L12.6927 12.0364ZM10.9512 9.39999C10.9512 8.84682 11.399 8.39999 11.9512 8.39999C12.5034 8.39999 12.9512 8.84682 12.9512 9.39999C12.9512 9.95219 12.5034 10.4 11.9512 10.4C11.399 10.4 10.9512 9.95219 10.9512 9.39999Z" fill="#5A707B"/>
</svg>
