<svg width="24" height="24" viewBox="0 0 24 24" fill="none" xmlns="http://www.w3.org/2000/svg">
<path fill-rule="evenodd" clip-rule="evenodd" d="M13.9697 4.96948C15.3671 3.57202 17.6329 3.57202 19.0303 4.96948C20.3779 6.31704 20.426 8.47195 19.1747 9.87717L19.0303 10.0301L18.0403 11.0202C18.037 11.0236 18.0337 11.027 18.0303 11.0303C18.027 11.0337 18.0236 11.037 18.0202 11.0403L8.53033 20.5301C8.41781 20.6427 8.27321 20.7157 8.11803 20.7405L8 20.7498H4C3.6203 20.7498 3.30651 20.4677 3.25685 20.1016L3.25 19.9998V15.9998C3.25 15.8407 3.30057 15.6868 3.39281 15.5596L3.46967 15.4695L13.9697 4.96948ZM17.4999 9.43922L17.9697 8.96948C18.7408 8.19839 18.7793 6.97216 18.0853 6.15555L17.9697 6.03014C17.1986 5.25905 15.9723 5.2205 15.1557 5.91448L15.0303 6.03014L14.5606 6.49989L17.4999 9.43922ZM13.4999 7.56052L16.4391 10.4998L7.689 19.2488H4.75V16.3098L13.4999 7.56052Z" fill="#39474E"/>
</svg>
