<svg width="24" height="25" viewBox="0 0 24 25" fill="none" xmlns="http://www.w3.org/2000/svg">
<path d="M4 20.4998H8L18.5 9.99981C19.6046 8.89524 19.6046 7.10438 18.5 5.99981C17.3954 4.89524 15.6046 4.89524 14.5 5.99981L4 16.4998V20.4998" stroke="#DCE2E5" stroke-width="1.5" stroke-linecap="round" stroke-linejoin="round"/>
<path d="M13.5 7L17.5 11" stroke="#DCE2E5" stroke-width="1.5" stroke-linecap="round" stroke-linejoin="round"/>
<path fill-rule="evenodd" clip-rule="evenodd" d="M13.9697 5.46948C15.3671 4.07202 17.6329 4.07202 19.0303 5.46948C20.3779 6.81704 20.426 8.97195 19.1747 10.3772L19.0303 10.5301L18.0403 11.5202C18.037 11.5236 18.0337 11.527 18.0303 11.5303C18.027 11.5337 18.0236 11.537 18.0202 11.5403L8.53033 21.0301C8.41781 21.1427 8.27321 21.2157 8.11803 21.2405L8 21.2498H4C3.6203 21.2498 3.30651 20.9677 3.25685 20.6016L3.25 20.4998V16.4998C3.25 16.3407 3.30057 16.1868 3.39281 16.0596L3.46967 15.9695L13.9697 5.46948ZM17.4999 9.93922L17.9697 9.46948C18.7408 8.69839 18.7793 7.47216 18.0853 6.65555L17.9697 6.53014C17.1986 5.75905 15.9723 5.7205 15.1557 6.41448L15.0303 6.53014L14.5606 6.99989L17.4999 9.93922ZM13.4999 8.06052L16.4391 10.9998L7.689 19.7488H4.75V16.8098L13.4999 8.06052Z" fill="#39474E"/>
</svg>
