<svg width="16" height="17" viewBox="0 0 16 17" fill="none" xmlns="http://www.w3.org/2000/svg">
<path fill-rule="evenodd" clip-rule="evenodd" d="M8.75 3.83301C8.75 3.41879 8.41421 3.08301 8 3.08301C7.58579 3.08301 7.25 3.41879 7.25 3.83301V7.75H3.3335C2.91928 7.75 2.5835 8.08579 2.5835 8.5C2.5835 8.91421 2.91928 9.25 3.3335 9.25H7.25V13.1663C7.25 13.5806 7.58579 13.9163 8 13.9163C8.41421 13.9163 8.75 13.5806 8.75 13.1663V9.25H12.6668C13.081 9.25 13.4168 8.91421 13.4168 8.5C13.4168 8.08579 13.081 7.75 12.6668 7.75H8.75V3.83301Z" fill="#BEC2C5"/>
</svg>
