<svg width="24" height="25" viewBox="0 0 24 25" fill="none" xmlns="http://www.w3.org/2000/svg">
<path fill-rule="evenodd" clip-rule="evenodd" d="M12 4.5C16.4183 4.5 20 8.08172 20 12.5C20 16.9183 16.4183 20.5 12 20.5C7.58172 20.5 4 16.9183 4 12.5C4 8.08172 7.58172 4.5 12 4.5ZM12 6C8.41015 6 5.5 8.91015 5.5 12.5C5.5 16.0899 8.41015 19 12 19C15.5899 19 18.5 16.0899 18.5 12.5C18.5 8.91015 15.5899 6 12 6ZM9.21719 12.6452L10.642 14.037L14.7908 9.98444C15.1274 9.66678 15.6638 9.67281 15.9958 9.99722C16.2907 10.2854 16.3331 10.7372 16.0884 11.0911L16.0015 11.1939L11.2514 15.8353C10.9554 16.1245 10.493 16.1629 10.135 15.9195L10.0333 15.8352L7.99171 13.8402C7.66417 13.5088 7.67047 12.9775 8.00479 12.6509C8.29768 12.3647 8.75353 12.3239 9.11182 12.5602L9.21719 12.6452Z" fill="#5A707B"/>
</svg>
